# xmcd
#
# Track frame offsets:
#	150
#	32657
#	66213
#	95134
#	118644
#	140075
#	172824
#	198114
#	227165
#
# Disc length: 3559 seconds
#
# Revision: 1
# Processed by: cddbd v1.5PL3 Copyright (c) Steve Scherf et al.
# Submitted via: audiograbber 1.83.01
#
DISCID=790de509
DTITLE=The Tony Vega Band - Live In Texas
DYEAR=1999
DGENRE=Blues
TTITLE0=Let Me Love You
TTITLE1=Frisco
TTITLE2=Lights of Las Vegas
TTITLE3=I Want To Hug You
TTITLE4=Old Maid
TTITLE5=Malted Milk
TTITLE6=Knockin At Your Door
TTITLE7=Wide Open
TTITLE8=Going Down
EXTD=
EXTT0=
EXTT1=
EXTT2=
EXTT3=
EXTT4=
EXTT5=
EXTT6=
EXTT7=
EXTT8=
PLAYORDER=
